STARTFONT 2.1
COMMENT
COMMENT Converted from OpenType font "manrope-medium.otf" by "otf2bdf 3.0".
COMMENT
FONT -FreeType-Manrope Medium-Medium-R-Normal--18-130-100-100-P-85-ISO10646-1
SIZE 13 100 100
FONTBOUNDINGBOX 18 23 -1 -5
STARTPROPERTIES 19
FOUNDRY "FreeType"
FAMILY_NAME "Manrope Medium"
WEIGHT_NAME "Medium"
SLANT "R"
SETWIDTH_NAME "Normal"
ADD_STYLE_NAME ""
PIXEL_SIZE 18
POINT_SIZE 130
RESOLUTION_X 100
RESOLUTION_Y 100
SPACING "P"
AVERAGE_WIDTH 85
CHARSET_REGISTRY "ISO10646"
CHARSET_ENCODING "1"
FONT_ASCENT 19
FONT_DESCENT 5
COPYRIGHT "Copyright 2019-2021 The Manrope Project Authors (https://github.com/sharanda/manrope)"
_OTF_FONTFILE "manrope-medium.otf"
_OTF_PSNAME "Manrope-Medium"
ENDPROPERTIES
CHARS 191
STARTCHAR 0020
ENCODING 32
SWIDTH 221 0
DWIDTH 4 0
BBX 0 0 0 0
BITMAP
ENDCHAR
STARTCHAR 0021
ENCODING 33
SWIDTH 332 0
DWIDTH 6 0
BBX 2 13 2 0
BITMAP
C0
C0
C0
C0
C0
C0
C0
C0
C0
C0
00
C0
C0
ENDCHAR
STARTCHAR 0022
ENCODING 34
SWIDTH 443 0
DWIDTH 8 0
BBX 5 3 1 10
BITMAP
D8
D8
D8
ENDCHAR
STARTCHAR 0023
ENCODING 35
SWIDTH 941 0
DWIDTH 17 0
BBX 15 13 1 0
BITMAP
0330
0230
0620
3FFE
7FFC
0460
0C40
FFF8
FFF8
1880
1880
1980
1180
ENDCHAR
STARTCHAR 0024
ENCODING 36
SWIDTH 609 0
DWIDTH 11 0
BBX 9 17 1 -2
BITMAP
0800
0800
3E00
7700
C180
C180
C000
7800
3F00
0780
0180
8080
C180
6100
3E00
0800
0800
ENDCHAR
STARTCHAR 0025
ENCODING 37
SWIDTH 886 0
DWIDTH 16 0
BBX 14 13 1 0
BITMAP
3808
6C18
C430
C660
C4C0
7D80
0300
0678
0CDC
1884
3084
60CC
4078
ENDCHAR
STARTCHAR 0026
ENCODING 38
SWIDTH 664 0
DWIDTH 12 0
BBX 10 13 1 0
BITMAP
3E00
7F00
4100
4000
6000
6000
7800
CC80
C680
C380
C180
7FC0
3E40
ENDCHAR
STARTCHAR 0027
ENCODING 39
SWIDTH 221 0
DWIDTH 4 0
BBX 2 3 1 10
BITMAP
C0
C0
C0
ENDCHAR
STARTCHAR 0028
ENCODING 40
SWIDTH 443 0
DWIDTH 8 0
BBX 4 18 3 -4
BITMAP
30
30
60
40
C0
C0
80
80
80
80
80
80
80
C0
C0
60
60
30
ENDCHAR
STARTCHAR 0029
ENCODING 41
SWIDTH 443 0
DWIDTH 8 0
BBX 4 18 1 -4
BITMAP
80
C0
60
60
30
30
10
10
10
10
10
10
30
30
20
60
40
C0
ENDCHAR
STARTCHAR 002A
ENCODING 42
SWIDTH 443 0
DWIDTH 8 0
BBX 6 6 1 7
BITMAP
20
24
FC
30
78
48
ENDCHAR
STARTCHAR 002B
ENCODING 43
SWIDTH 553 0
DWIDTH 10 0
BBX 8 8 1 3
BITMAP
08
08
08
08
FF
08
08
08
ENDCHAR
STARTCHAR 002C
ENCODING 44
SWIDTH 276 0
DWIDTH 5 0
BBX 2 4 1 -2
BITMAP
C0
C0
40
C0
ENDCHAR
STARTCHAR 002D
ENCODING 45
SWIDTH 443 0
DWIDTH 8 0
BBX 6 1 1 5
BITMAP
FC
ENDCHAR
STARTCHAR 002E
ENCODING 46
SWIDTH 276 0
DWIDTH 5 0
BBX 1 2 2 0
BITMAP
80
80
ENDCHAR
STARTCHAR 002F
ENCODING 47
SWIDTH 387 0
DWIDTH 7 0
BBX 5 13 1 0
BITMAP
18
18
18
10
30
30
20
20
60
60
40
C0
C0
ENDCHAR
STARTCHAR 0030
ENCODING 48
SWIDTH 609 0
DWIDTH 11 0
BBX 9 13 1 0
BITMAP
1E00
7F00
6180
C180
C180
C180
C180
C180
C180
C180
6180
7F00
1E00
ENDCHAR
STARTCHAR 0031
ENCODING 49
SWIDTH 387 0
DWIDTH 7 0
BBX 4 13 1 0
BITMAP
30
F0
90
10
10
10
10
10
10
10
10
10
10
ENDCHAR
STARTCHAR 0032
ENCODING 50
SWIDTH 553 0
DWIDTH 10 0
BBX 9 13 1 0
BITMAP
3C00
7F00
C300
C100
0180
0100
0300
0600
1C00
3800
6000
FF80
FF80
ENDCHAR
STARTCHAR 0033
ENCODING 51
SWIDTH 553 0
DWIDTH 10 0
BBX 8 13 1 0
BITMAP
FF
FF
06
0C
38
3E
07
03
03
03
C3
FE
3C
ENDCHAR
STARTCHAR 0034
ENCODING 52
SWIDTH 609 0
DWIDTH 11 0
BBX 9 13 1 0
BITMAP
0C00
1800
1800
1000
3000
2300
6300
4300
C300
FF80
FF80
0300
0300
ENDCHAR
STARTCHAR 0035
ENCODING 53
SWIDTH 553 0
DWIDTH 10 0
BBX 9 13 1 0
BITMAP
7F00
7F00
4000
C000
C000
FE00
C300
0100
0180
0180
C300
7E00
3C00
ENDCHAR
STARTCHAR 0036
ENCODING 54
SWIDTH 609 0
DWIDTH 11 0
BBX 9 13 1 0
BITMAP
1E00
7F00
6000
C000
C000
FF00
E300
C180
C180
C180
6180
7F00
1E00
ENDCHAR
STARTCHAR 0037
ENCODING 55
SWIDTH 498 0
DWIDTH 9 0
BBX 7 13 1 0
BITMAP
FE
FE
06
06
0C
0C
08
18
18
30
30
20
60
ENDCHAR
STARTCHAR 0038
ENCODING 56
SWIDTH 609 0
DWIDTH 11 0
BBX 9 13 1 0
BITMAP
3C00
7F00
4300
C100
4300
7F00
7E00
6300
C180
C180
C100
7F00
3E00
ENDCHAR
STARTCHAR 0039
ENCODING 57
SWIDTH 609 0
DWIDTH 11 0
BBX 9 13 1 0
BITMAP
3E00
7F00
C180
C180
C180
C180
6380
3F80
0180
0180
0180
7F00
3E00
ENDCHAR
STARTCHAR 003A
ENCODING 58
SWIDTH 332 0
DWIDTH 6 0
BBX 2 8 2 1
BITMAP
C0
C0
00
00
00
00
C0
C0
ENDCHAR
STARTCHAR 003B
ENCODING 59
SWIDTH 332 0
DWIDTH 6 0
BBX 2 12 2 -2
BITMAP
C0
C0
00
00
00
00
00
00
C0
C0
40
80
ENDCHAR
STARTCHAR 003C
ENCODING 60
SWIDTH 609 0
DWIDTH 11 0
BBX 5 8 3 1
BITMAP
10
30
60
C0
C0
60
30
18
ENDCHAR
STARTCHAR 003D
ENCODING 61
SWIDTH 775 0
DWIDTH 14 0
BBX 9 5 2 4
BITMAP
FF80
0000
0000
0000
FF80
ENDCHAR
STARTCHAR 003E
ENCODING 62
SWIDTH 609 0
DWIDTH 11 0
BBX 5 8 3 1
BITMAP
40
60
30
18
08
30
60
C0
ENDCHAR
STARTCHAR 003F
ENCODING 63
SWIDTH 553 0
DWIDTH 10 0
BBX 8 13 1 0
BITMAP
3C
7E
C3
03
03
06
0C
18
10
10
00
10
10
ENDCHAR
STARTCHAR 0040
ENCODING 64
SWIDTH 886 0
DWIDTH 16 0
BBX 14 13 1 -2
BITMAP
0FE0
3830
6018
47CC
4CCC
CC44
C84C
4CCC
47F8
6000
3000
1C40
0FC0
ENDCHAR
STARTCHAR 0041
ENCODING 65
SWIDTH 664 0
DWIDTH 12 0
BBX 10 13 1 0
BITMAP
0C00
1C00
1E00
1600
3200
3300
2300
6100
7F80
7F80
C080
C0C0
80C0
ENDCHAR
STARTCHAR 0042
ENCODING 66
SWIDTH 609 0
DWIDTH 11 0
BBX 10 13 1 0
BITMAP
FE00
FF00
C180
C180
C180
FF00
FF00
C180
C0C0
C0C0
C080
FF80
FF00
ENDCHAR
STARTCHAR 0043
ENCODING 67
SWIDTH 720 0
DWIDTH 13 0
BBX 11 13 1 0
BITMAP
1F00
7FC0
60E0
C060
C000
8000
8000
8000
8000
C060
60E0
7FC0
1F00
ENDCHAR
STARTCHAR 0044
ENCODING 68
SWIDTH 664 0
DWIDTH 12 0
BBX 10 13 1 0
BITMAP
FE00
FF80
C1C0
C0C0
C040
C040
C040
C040
C040
C0C0
C1C0
FF80
FE00
ENDCHAR
STARTCHAR 0045
ENCODING 69
SWIDTH 553 0
DWIDTH 10 0
BBX 8 13 1 0
BITMAP
FF
FF
C0
C0
C0
FE
FE
C0
C0
C0
C0
FF
FF
ENDCHAR
STARTCHAR 0046
ENCODING 70
SWIDTH 498 0
DWIDTH 9 0
BBX 8 13 1 0
BITMAP
FF
FF
C0
C0
C0
FE
FE
C0
C0
C0
C0
C0
C0
ENDCHAR
STARTCHAR 0047
ENCODING 71
SWIDTH 720 0
DWIDTH 13 0
BBX 11 13 1 0
BITMAP
1F00
7FC0
60C0
C060
8000
8000
81E0
8020
C060
C060
60C0
7FC0
1F00
ENDCHAR
STARTCHAR 0048
ENCODING 72
SWIDTH 720 0
DWIDTH 13 0
BBX 10 13 1 0
BITMAP
C040
C040
C040
C040
C040
FFC0
FFC0
C040
C040
C040
C040
C040
C040
ENDCHAR
STARTCHAR 0049
ENCODING 73
SWIDTH 276 0
DWIDTH 5 0
BBX 2 13 1 0
BITMAP
C0
C0
C0
C0
C0
C0
C0
C0
C0
C0
C0
C0
C0
ENDCHAR
STARTCHAR 004A
ENCODING 74
SWIDTH 498 0
DWIDTH 9 0
BBX 7 13 0 0
BITMAP
02
02
02
02
02
02
02
02
02
02
C6
7E
3C
ENDCHAR
STARTCHAR 004B
ENCODING 75
SWIDTH 609 0
DWIDTH 11 0
BBX 10 13 1 0
BITMAP
C180
C300
C600
CC00
D800
F000
F000
D800
CC00
C600
C300
C180
C1C0
ENDCHAR
STARTCHAR 004C
ENCODING 76
SWIDTH 498 0
DWIDTH 9 0
BBX 8 13 1 0
BITMAP
C0
C0
C0
C0
C0
C0
C0
C0
C0
C0
C0
FF
FF
ENDCHAR
STARTCHAR 004D
ENCODING 77
SWIDTH 830 0
DWIDTH 15 0
BBX 13 13 1 0
BITMAP
C018
C018
E038
E038
F078
D078
D8D8
C8D8
CC98
C598
C718
C318
C218
ENDCHAR
STARTCHAR 004E
ENCODING 78
SWIDTH 720 0
DWIDTH 13 0
BBX 10 13 1 0
BITMAP
C040
E040
F040
F040
D840
CC40
CC40
C640
C340
C340
C1C0
C0C0
C0C0
ENDCHAR
STARTCHAR 004F
ENCODING 79
SWIDTH 720 0
DWIDTH 13 0
BBX 12 13 1 0
BITMAP
1F00
7FC0
60E0
C060
C020
8030
8030
8030
8020
C060
60E0
7FC0
1F00
ENDCHAR
STARTCHAR 0050
ENCODING 80
SWIDTH 609 0
DWIDTH 11 0
BBX 10 13 1 0
BITMAP
FF00
FF80
C180
C0C0
C0C0
C080
FF80
FF00
C000
C000
C000
C000
C000
ENDCHAR
STARTCHAR 0051
ENCODING 81
SWIDTH 720 0
DWIDTH 13 0
BBX 12 13 1 0
BITMAP
1F00
7FC0
60E0
C060
C020
8030
8030
8030
8020
C1E0
60E0
7FE0
1F20
ENDCHAR
STARTCHAR 0052
ENCODING 82
SWIDTH 664 0
DWIDTH 12 0
BBX 10 13 1 0
BITMAP
FF00
FF80
C180
C0C0
C0C0
C080
FF80
FF00
C300
C300
C180
C180
C0C0
ENDCHAR
STARTCHAR 0053
ENCODING 83
SWIDTH 609 0
DWIDTH 11 0
BBX 10 13 1 0
BITMAP
3E00
7F80
C180
C0C0
C000
7800
1F00
0380
00C0
80C0
C0C0
7F80
3E00
ENDCHAR
STARTCHAR 0054
ENCODING 84
SWIDTH 609 0
DWIDTH 11 0
BBX 11 13 0 0
BITMAP
FFE0
FFE0
0400
0400
0400
0400
0400
0400
0400
0400
0400
0400
0400
ENDCHAR
STARTCHAR 0055
ENCODING 85
SWIDTH 720 0
DWIDTH 13 0
BBX 11 13 1 0
BITMAP
C060
C060
C060
C060
C060
C060
C060
C060
C060
C040
60C0
3F80
1F00
ENDCHAR
STARTCHAR 0056
ENCODING 86
SWIDTH 609 0
DWIDTH 11 0
BBX 11 13 0 0
BITMAP
C060
4060
6040
60C0
20C0
3180
3180
1180
1B00
1B00
0B00
0E00
0E00
ENDCHAR
STARTCHAR 0057
ENCODING 87
SWIDTH 941 0
DWIDTH 17 0
BBX 17 13 0 0
BITMAP
C0C180
41C100
61C300
614300
236300
236200
332600
323600
163400
1E3400
1C1C00
0C1C00
0C1800
ENDCHAR
STARTCHAR 0058
ENCODING 88
SWIDTH 609 0
DWIDTH 11 0
BBX 10 13 1 0
BITMAP
C0C0
C180
6300
3300
3600
1C00
0C00
1C00
3600
2300
6300
C180
80C0
ENDCHAR
STARTCHAR 0059
ENCODING 89
SWIDTH 553 0
DWIDTH 10 0
BBX 10 13 0 0
BITMAP
C0C0
60C0
6180
3300
1300
1E00
0E00
0C00
0C00
0C00
0C00
0C00
0C00
ENDCHAR
STARTCHAR 005A
ENCODING 90
SWIDTH 609 0
DWIDTH 11 0
BBX 9 13 1 0
BITMAP
FF80
FF80
0300
0300
0600
0C00
0C00
1800
3000
3000
6000
7F80
FF80
ENDCHAR
STARTCHAR 005B
ENCODING 91
SWIDTH 387 0
DWIDTH 7 0
BBX 3 20 3 -4
BITMAP
E0
80
80
80
80
80
80
80
80
80
80
80
80
80
80
80
80
80
80
E0
ENDCHAR
STARTCHAR 005C
ENCODING 92
SWIDTH 387 0
DWIDTH 7 0
BBX 5 13 1 0
BITMAP
C0
C0
40
60
60
20
20
30
30
10
18
18
18
ENDCHAR
STARTCHAR 005D
ENCODING 93
SWIDTH 387 0
DWIDTH 7 0
BBX 4 20 1 -4
BITMAP
F0
30
30
30
30
30
30
30
30
30
30
30
30
30
30
30
30
30
30
F0
ENDCHAR
STARTCHAR 005E
ENCODING 94
SWIDTH 664 0
DWIDTH 12 0
BBX 8 5 2 8
BITMAP
18
3C
66
C3
81
ENDCHAR
STARTCHAR 005F
ENCODING 95
SWIDTH 664 0
DWIDTH 12 0
BBX 12 1 0 -2
BITMAP
FFF0
ENDCHAR
STARTCHAR 0060
ENCODING 96
SWIDTH 498 0
DWIDTH 9 0
BBX 2 3 3 14
BITMAP
C0
40
40
ENDCHAR
STARTCHAR 0061
ENCODING 97
SWIDTH 553 0
DWIDTH 10 0
BBX 8 10 1 0
BITMAP
3C
7F
C3
03
3F
E3
83
83
CD
79
ENDCHAR
STARTCHAR 0062
ENCODING 98
SWIDTH 609 0
DWIDTH 11 0
BBX 9 13 1 0
BITMAP
C000
C000
C000
DE00
F700
C180
C180
C180
C180
C180
C180
F700
DE00
ENDCHAR
STARTCHAR 0063
ENCODING 99
SWIDTH 553 0
DWIDTH 10 0
BBX 8 10 1 0
BITMAP
3E
7F
C1
C0
80
80
C0
C1
7F
3E
ENDCHAR
STARTCHAR 0064
ENCODING 100
SWIDTH 609 0
DWIDTH 11 0
BBX 9 13 1 0
BITMAP
0180
0180
0180
3D80
7780
C380
C180
8180
8180
C180
C380
7780
3D80
ENDCHAR
STARTCHAR 0065
ENCODING 101
SWIDTH 609 0
DWIDTH 11 0
BBX 9 10 1 0
BITMAP
3E00
7700
C100
C180
FF80
8000
C000
C180
7F00
3E00
ENDCHAR
STARTCHAR 0066
ENCODING 102
SWIDTH 387 0
DWIDTH 7 0
BBX 5 13 1 0
BITMAP
38
60
60
F8
60
60
60
60
60
60
60
60
60
ENDCHAR
STARTCHAR 0067
ENCODING 103
SWIDTH 609 0
DWIDTH 11 0
BBX 9 15 1 -5
BITMAP
3D80
7780
C380
C180
8180
8180
C180
C380
7780
3D80
0180
0100
E300
7E00
1800
ENDCHAR
STARTCHAR 0068
ENCODING 104
SWIDTH 609 0
DWIDTH 11 0
BBX 9 13 1 0
BITMAP
C000
C000
C000
DE00
FF00
C100
C180
C180
C180
C180
C180
C180
C180
ENDCHAR
STARTCHAR 0069
ENCODING 105
SWIDTH 276 0
DWIDTH 5 0
BBX 2 13 1 0
BITMAP
C0
C0
00
C0
C0
C0
C0
C0
C0
C0
C0
C0
C0
ENDCHAR
STARTCHAR 006A
ENCODING 106
SWIDTH 276 0
DWIDTH 5 0
BBX 3 18 0 -5
BITMAP
20
20
00
20
20
20
20
20
20
20
20
20
20
20
20
20
E0
C0
ENDCHAR
STARTCHAR 006B
ENCODING 107
SWIDTH 498 0
DWIDTH 9 0
BBX 8 13 1 0
BITMAP
C0
C0
C0
C3
C6
CC
D8
F0
F0
D8
CC
C6
C3
ENDCHAR
STARTCHAR 006C
ENCODING 108
SWIDTH 276 0
DWIDTH 5 0
BBX 2 13 1 0
BITMAP
C0
C0
C0
C0
C0
C0
C0
C0
C0
C0
C0
C0
C0
ENDCHAR
STARTCHAR 006D
ENCODING 109
SWIDTH 886 0
DWIDTH 16 0
BBX 14 10 1 0
BITMAP
DCF0
E7B8
C308
C30C
C30C
C30C
C30C
C30C
C30C
C30C
ENDCHAR
STARTCHAR 006E
ENCODING 110
SWIDTH 609 0
DWIDTH 11 0
BBX 9 10 1 0
BITMAP
DE00
FF00
C100
C180
C180
C180
C180
C180
C180
C180
ENDCHAR
STARTCHAR 006F
ENCODING 111
SWIDTH 609 0
DWIDTH 11 0
BBX 9 10 1 0
BITMAP
3E00
7F00
C180
C180
8180
8180
C180
C180
7F00
3E00
ENDCHAR
STARTCHAR 0070
ENCODING 112
SWIDTH 609 0
DWIDTH 11 0
BBX 9 14 1 -4
BITMAP
DE00
F700
C180
C180
C180
C180
C180
C180
F700
DE00
C000
C000
C000
C000
ENDCHAR
STARTCHAR 0071
ENCODING 113
SWIDTH 609 0
DWIDTH 11 0
BBX 9 14 1 -4
BITMAP
3D80
7780
C380
C180
8180
8180
C180
C380
7780
3D80
0180
0180
0180
0180
ENDCHAR
STARTCHAR 0072
ENCODING 114
SWIDTH 387 0
DWIDTH 7 0
BBX 5 10 1 0
BITMAP
D8
F8
E0
C0
C0
C0
C0
C0
C0
C0
ENDCHAR
STARTCHAR 0073
ENCODING 115
SWIDTH 553 0
DWIDTH 10 0
BBX 8 10 1 0
BITMAP
7C
EE
C3
C0
78
0E
03
C3
E6
3C
ENDCHAR
STARTCHAR 0074
ENCODING 116
SWIDTH 387 0
DWIDTH 7 0
BBX 7 13 0 0
BITMAP
30
30
30
FE
30
30
30
30
30
30
30
3A
1E
ENDCHAR
STARTCHAR 0075
ENCODING 117
SWIDTH 609 0
DWIDTH 11 0
BBX 9 10 1 0
BITMAP
C180
C180
C180
C180
C180
C180
C180
C380
7F80
3D80
ENDCHAR
STARTCHAR 0076
ENCODING 118
SWIDTH 498 0
DWIDTH 9 0
BBX 8 10 1 0
BITMAP
83
C3
C2
46
64
64
2C
38
38
18
ENDCHAR
STARTCHAR 0077
ENCODING 119
SWIDTH 775 0
DWIDTH 14 0
BBX 13 10 1 0
BITMAP
8618
8610
C630
CF30
4920
6960
79E0
30C0
30C0
30C0
ENDCHAR
STARTCHAR 0078
ENCODING 120
SWIDTH 553 0
DWIDTH 10 0
BBX 8 10 1 0
BITMAP
C3
C6
66
3C
18
18
3C
66
C6
83
ENDCHAR
STARTCHAR 0079
ENCODING 121
SWIDTH 553 0
DWIDTH 10 0
BBX 9 14 0 -4
BITMAP
C080
6180
6180
2100
3300
3200
1E00
1E00
0C00
0C00
0C00
0800
1800
1000
ENDCHAR
STARTCHAR 007A
ENCODING 122
SWIDTH 553 0
DWIDTH 10 0
BBX 8 10 1 0
BITMAP
FF
06
04
0C
18
30
20
60
C0
FF
ENDCHAR
STARTCHAR 007B
ENCODING 123
SWIDTH 443 0
DWIDTH 8 0
BBX 4 20 3 -4
BITMAP
70
70
40
40
40
40
40
40
C0
C0
C0
C0
40
40
40
40
40
40
70
70
ENDCHAR
STARTCHAR 007C
ENCODING 124
SWIDTH 276 0
DWIDTH 5 0
BBX 1 13 2 0
BITMAP
80
80
80
80
80
80
80
80
80
80
80
80
80
ENDCHAR
STARTCHAR 007D
ENCODING 125
SWIDTH 443 0
DWIDTH 8 0
BBX 4 20 1 -4
BITMAP
C0
E0
20
20
20
20
20
20
20
30
30
20
20
20
20
20
20
20
E0
C0
ENDCHAR
STARTCHAR 007E
ENCODING 126
SWIDTH 664 0
DWIDTH 12 0
BBX 8 3 2 4
BITMAP
71
FF
CF
ENDCHAR
STARTCHAR 00A0
ENCODING 160
SWIDTH 221 0
DWIDTH 4 0
BBX 0 0 0 0
BITMAP
ENDCHAR
STARTCHAR 00A1
ENCODING 161
SWIDTH 332 0
DWIDTH 6 0
BBX 2 13 2 -3
BITMAP
C0
C0
00
C0
C0
C0
C0
C0
C0
C0
C0
C0
C0
ENDCHAR
STARTCHAR 00A2
ENCODING 162
SWIDTH 553 0
DWIDTH 10 0
BBX 8 14 1 -1
BITMAP
08
08
3E
63
C1
C0
80
80
C0
C3
7F
3C
08
08
ENDCHAR
STARTCHAR 00A3
ENCODING 163
SWIDTH 553 0
DWIDTH 10 0
BBX 8 13 1 0
BITMAP
1E
3F
21
21
20
20
FC
FC
20
20
20
FF
FF
ENDCHAR
STARTCHAR 00A4
ENCODING 164
SWIDTH 664 0
DWIDTH 12 0
BBX 10 11 1 1
BITMAP
8040
FFC0
6180
4080
C0C0
C0C0
C0C0
4080
6180
FFC0
8040
ENDCHAR
STARTCHAR 00A5
ENCODING 165
SWIDTH 553 0
DWIDTH 10 0
BBX 10 13 0 0
BITMAP
C0C0
60C0
6180
3300
1300
1E00
0E00
3F80
0C00
0C00
3F80
0C00
0C00
ENDCHAR
STARTCHAR 00A6
ENCODING 166
SWIDTH 276 0
DWIDTH 5 0
BBX 1 16 2 -3
BITMAP
80
80
80
80
80
80
80
00
00
80
80
80
80
80
80
80
ENDCHAR
STARTCHAR 00A7
ENCODING 167
SWIDTH 553 0
DWIDTH 10 0
BBX 8 14 1 -2
BITMAP
3C
EE
C2
C0
78
7E
C3
C3
F3
3E
07
C3
C2
7E
ENDCHAR
STARTCHAR 00A8
ENCODING 168
SWIDTH 553 0
DWIDTH 10 0
BBX 5 2 2 15
BITMAP
C8
C8
ENDCHAR
STARTCHAR 00A9
ENCODING 169
SWIDTH 830 0
DWIDTH 15 0
BBX 13 14 1 -1
BITMAP
0F80
3FE0
6030
C718
CC98
9808
9808
9808
88C8
CF98
6030
3060
1FC0
0200
ENDCHAR
STARTCHAR 00AA
ENCODING 170
SWIDTH 332 0
DWIDTH 6 0
BBX 4 5 1 5
BITMAP
E0
10
F0
90
F0
ENDCHAR
STARTCHAR 00AB
ENCODING 171
SWIDTH 553 0
DWIDTH 10 0
BBX 7 8 2 1
BITMAP
20
64
48
98
98
48
64
26
ENDCHAR
STARTCHAR 00AC
ENCODING 172
SWIDTH 609 0
DWIDTH 11 0
BBX 9 4 1 3
BITMAP
FF80
0180
0180
0180
ENDCHAR
STARTCHAR 00AD
ENCODING 173
SWIDTH 443 0
DWIDTH 8 0
BBX 6 1 1 5
BITMAP
FC
ENDCHAR
STARTCHAR 00AE
ENCODING 174
SWIDTH 609 0
DWIDTH 11 0
BBX 9 9 1 5
BITMAP
1E00
6300
5D80
D480
9C80
D480
5180
6300
1E00
ENDCHAR
STARTCHAR 00AF
ENCODING 175
SWIDTH 498 0
DWIDTH 9 0
BBX 5 1 2 15
BITMAP
F8
ENDCHAR
STARTCHAR 00B0
ENCODING 176
SWIDTH 443 0
DWIDTH 8 0
BBX 6 6 1 7
BITMAP
78
DC
8C
84
CC
78
ENDCHAR
STARTCHAR 00B1
ENCODING 177
SWIDTH 609 0
DWIDTH 11 0
BBX 9 8 1 2
BITMAP
0800
0800
FF80
0800
0800
0800
0000
FF80
ENDCHAR
STARTCHAR 00B2
ENCODING 178
SWIDTH 387 0
DWIDTH 7 0
BBX 5 8 1 5
BITMAP
70
C8
88
08
18
20
40
F8
ENDCHAR
STARTCHAR 00B3
ENCODING 179
SWIDTH 387 0
DWIDTH 7 0
BBX 5 8 1 5
BITMAP
F8
10
20
70
08
08
88
70
ENDCHAR
STARTCHAR 00B4
ENCODING 180
SWIDTH 498 0
DWIDTH 9 0
BBX 2 3 4 14
BITMAP
40
80
80
ENDCHAR
STARTCHAR 00B5
ENCODING 181
SWIDTH 609 0
DWIDTH 11 0
BBX 9 14 1 -4
BITMAP
C180
C180
C180
C180
C180
C180
C180
E180
FF80
FD80
C000
C000
C000
C000
ENDCHAR
STARTCHAR 00B6
ENCODING 182
SWIDTH 664 0
DWIDTH 12 0
BBX 10 16 1 -3
BITMAP
3EC0
7EC0
FEC0
FEC0
FEC0
FEC0
7EC0
3EC0
06C0
06C0
06C0
06C0
06C0
06C0
06C0
06C0
ENDCHAR
STARTCHAR 00B7
ENCODING 183
SWIDTH 221 0
DWIDTH 4 0
BBX 2 2 1 5
BITMAP
C0
C0
ENDCHAR
STARTCHAR 00B8
ENCODING 184
SWIDTH 387 0
DWIDTH 7 0
BBX 3 4 2 -4
BITMAP
40
60
20
E0
ENDCHAR
STARTCHAR 00B9
ENCODING 185
SWIDTH 332 0
DWIDTH 6 0
BBX 3 8 1 5
BITMAP
60
A0
20
20
20
20
20
20
ENDCHAR
STARTCHAR 00BA
ENCODING 186
SWIDTH 332 0
DWIDTH 6 0
BBX 5 5 1 5
BITMAP
70
90
98
90
70
ENDCHAR
STARTCHAR 00BB
ENCODING 187
SWIDTH 553 0
DWIDTH 10 0
BBX 7 8 1 1
BITMAP
08
48
24
32
32
24
4C
88
ENDCHAR
STARTCHAR 00BC
ENCODING 188
SWIDTH 996 0
DWIDTH 18 0
BBX 15 13 1 0
BITMAP
6010
A030
2060
2040
2080
2188
2310
2210
0430
0C24
1864
107E
2004
ENDCHAR
STARTCHAR 00BD
ENCODING 189
SWIDTH 941 0
DWIDTH 17 0
BBX 15 13 1 0
BITMAP
6010
A030
2060
20C0
2080
219C
2332
2622
0402
0C06
1808
3010
203E
ENDCHAR
STARTCHAR 00BE
ENCODING 190
SWIDTH 996 0
DWIDTH 18 0
BBX 16 13 1 0
BITMAP
F808
1018
2030
7020
0840
08C4
8988
7108
021A
0612
0C32
083F
1002
ENDCHAR
STARTCHAR 00BF
ENCODING 191
SWIDTH 553 0
DWIDTH 10 0
BBX 8 14 1 -4
BITMAP
18
18
00
00
18
18
30
60
C0
C0
C3
C6
7E
10
ENDCHAR
STARTCHAR 00C0
ENCODING 192
SWIDTH 664 0
DWIDTH 12 0
BBX 10 17 1 0
BITMAP
1800
0800
0800
0000
0C00
1C00
1E00
1600
3200
3300
2300
6100
7F80
7F80
C080
C0C0
80C0
ENDCHAR
STARTCHAR 00C1
ENCODING 193
SWIDTH 664 0
DWIDTH 12 0
BBX 10 17 1 0
BITMAP
0400
0400
0C00
0000
0C00
1C00
1E00
1600
3200
3300
2300
6100
7F80
7F80
C080
C0C0
80C0
ENDCHAR
STARTCHAR 00C2
ENCODING 194
SWIDTH 664 0
DWIDTH 12 0
BBX 10 17 1 0
BITMAP
0C00
1600
3300
0000
0C00
1C00
1E00
1600
3200
3300
2300
6100
7F80
7F80
C080
C0C0
80C0
ENDCHAR
STARTCHAR 00C3
ENCODING 195
SWIDTH 664 0
DWIDTH 12 0
BBX 10 17 1 0
BITMAP
3900
2600
0000
0000
0C00
1C00
1E00
1600
3200
3300
2300
6100
7F80
7F80
C080
C0C0
80C0
ENDCHAR
STARTCHAR 00C4
ENCODING 196
SWIDTH 664 0
DWIDTH 12 0
BBX 10 17 1 0
BITMAP
3200
3200
0000
0000
0C00
1C00
1E00
1600
3200
3300
2300
6100
7F80
7F80
C080
C0C0
80C0
ENDCHAR
STARTCHAR 00C5
ENCODING 197
SWIDTH 664 0
DWIDTH 12 0
BBX 10 18 1 0
BITMAP
1C00
1200
1200
1C00
0000
0C00
1C00
1E00
1600
3200
3300
2300
6100
7F80
7F80
C080
C0C0
80C0
ENDCHAR
STARTCHAR 00C6
ENCODING 198
SWIDTH 941 0
DWIDTH 17 0
BBX 15 13 1 0
BITMAP
0FFE
1FFE
1900
1100
3100
31FC
21FC
6100
7F00
7F00
C100
C1FE
81FE
ENDCHAR
STARTCHAR 00C7
ENCODING 199
SWIDTH 720 0
DWIDTH 13 0
BBX 11 17 1 -4
BITMAP
1F00
7FC0
60E0
C060
C000
8000
8000
8000
8000
C060
60E0
7FC0
1F00
0400
0600
0200
0E00
ENDCHAR
STARTCHAR 00C8
ENCODING 200
SWIDTH 553 0
DWIDTH 10 0
BBX 8 17 1 0
BITMAP
10
08
08
00
FF
FF
C0
C0
C0
FE
FE
C0
C0
C0
C0
FF
FF
ENDCHAR
STARTCHAR 00C9
ENCODING 201
SWIDTH 553 0
DWIDTH 10 0
BBX 8 17 1 0
BITMAP
04
0C
08
00
FF
FF
C0
C0
C0
FE
FE
C0
C0
C0
C0
FF
FF
ENDCHAR
STARTCHAR 00CA
ENCODING 202
SWIDTH 553 0
DWIDTH 10 0
BBX 8 17 1 0
BITMAP
18
34
62
00
FF
FF
C0
C0
C0
FE
FE
C0
C0
C0
C0
FF
FF
ENDCHAR
STARTCHAR 00CB
ENCODING 203
SWIDTH 553 0
DWIDTH 10 0
BBX 8 17 1 0
BITMAP
26
26
00
00
FF
FF
C0
C0
C0
FE
FE
C0
C0
C0
C0
FF
FF
ENDCHAR
STARTCHAR 00CC
ENCODING 204
SWIDTH 276 0
DWIDTH 5 0
BBX 2 17 1 0
BITMAP
80
80
C0
00
C0
C0
C0
C0
C0
C0
C0
C0
C0
C0
C0
C0
C0
ENDCHAR
STARTCHAR 00CD
ENCODING 205
SWIDTH 276 0
DWIDTH 5 0
BBX 3 17 1 0
BITMAP
20
60
40
00
C0
C0
C0
C0
C0
C0
C0
C0
C0
C0
C0
C0
C0
ENDCHAR
STARTCHAR 00CE
ENCODING 206
SWIDTH 276 0
DWIDTH 5 0
BBX 6 17 -1 0
BITMAP
30
68
CC
00
30
30
30
30
30
30
30
30
30
30
30
30
30
ENDCHAR
STARTCHAR 00CF
ENCODING 207
SWIDTH 276 0
DWIDTH 5 0
BBX 5 17 0 0
BITMAP
98
98
00
00
60
60
60
60
60
60
60
60
60
60
60
60
60
ENDCHAR
STARTCHAR 00D0
ENCODING 208
SWIDTH 664 0
DWIDTH 12 0
BBX 11 13 0 0
BITMAP
7F00
7FC0
60C0
6060
6020
6020
FC20
6020
6060
6060
60C0
7FC0
7F00
ENDCHAR
STARTCHAR 00D1
ENCODING 209
SWIDTH 720 0
DWIDTH 13 0
BBX 10 17 1 0
BITMAP
1D00
1700
0000
0000
C040
E040
F040
F040
D840
CC40
CC40
C640
C340
C340
C1C0
C0C0
C0C0
ENDCHAR
STARTCHAR 00D2
ENCODING 210
SWIDTH 720 0
DWIDTH 13 0
BBX 12 17 1 0
BITMAP
0800
0C00
0400
0000
1F00
7FC0
60E0
C060
C020
8030
8030
8030
8020
C060
60E0
7FC0
1F00
ENDCHAR
STARTCHAR 00D3
ENCODING 211
SWIDTH 720 0
DWIDTH 13 0
BBX 12 17 1 0
BITMAP
0200
0200
0600
0000
1F00
7FC0
60E0
C060
C020
8030
8030
8030
8020
C060
60E0
7FC0
1F00
ENDCHAR
STARTCHAR 00D4
ENCODING 212
SWIDTH 720 0
DWIDTH 13 0
BBX 12 17 1 0
BITMAP
0E00
0B00
1100
0000
1F00
7FC0
60E0
C060
C020
8030
8030
8030
8020
C060
60E0
7FC0
1F00
ENDCHAR
STARTCHAR 00D5
ENCODING 213
SWIDTH 720 0
DWIDTH 13 0
BBX 12 16 1 0
BITMAP
1D80
1300
0000
1F00
7FC0
60E0
C060
C020
8030
8030
8030
8020
C060
60E0
7FC0
1F00
ENDCHAR
STARTCHAR 00D6
ENCODING 214
SWIDTH 720 0
DWIDTH 13 0
BBX 12 16 1 0
BITMAP
1900
1900
0000
1F00
7FC0
60E0
C060
C020
8030
8030
8030
8020
C060
60E0
7FC0
1F00
ENDCHAR
STARTCHAR 00D7
ENCODING 215
SWIDTH 498 0
DWIDTH 9 0
BBX 7 6 1 3
BITMAP
44
6C
38
38
6C
C6
ENDCHAR
STARTCHAR 00D8
ENCODING 216
SWIDTH 720 0
DWIDTH 13 0
BBX 12 13 1 0
BITMAP
1F20
7FE0
60E0
C0E0
C1A0
8330
8630
8C30
D820
F060
60E0
FFC0
9F00
ENDCHAR
STARTCHAR 00D9
ENCODING 217
SWIDTH 720 0
DWIDTH 13 0
BBX 11 17 1 0
BITMAP
0800
0400
0400
0000
C060
C060
C060
C060
C060
C060
C060
C060
C060
C040
60C0
3F80
1F00
ENDCHAR
STARTCHAR 00DA
ENCODING 218
SWIDTH 720 0
DWIDTH 13 0
BBX 11 17 1 0
BITMAP
0600
0400
0400
0000
C060
C060
C060
C060
C060
C060
C060
C060
C060
C040
60C0
3F80
1F00
ENDCHAR
STARTCHAR 00DB
ENCODING 219
SWIDTH 720 0
DWIDTH 13 0
BBX 11 17 1 0
BITMAP
0E00
1A00
1100
0000
C060
C060
C060
C060
C060
C060
C060
C060
C060
C040
60C0
3F80
1F00
ENDCHAR
STARTCHAR 00DC
ENCODING 220
SWIDTH 720 0
DWIDTH 13 0
BBX 11 17 1 0
BITMAP
1300
1300
0000
0000
C060
C060
C060
C060
C060
C060
C060
C060
C060
C040
60C0
3F80
1F00
ENDCHAR
STARTCHAR 00DD
ENCODING 221
SWIDTH 553 0
DWIDTH 10 0
BBX 10 17 0 0
BITMAP
0600
0400
0C00
0000
C0C0
60C0
6180
3300
1300
1E00
0E00
0C00
0C00
0C00
0C00
0C00
0C00
ENDCHAR
STARTCHAR 00DE
ENCODING 222
SWIDTH 609 0
DWIDTH 11 0
BBX 9 13 1 0
BITMAP
C000
C000
FC00
FF00
C180
C080
C080
C080
C180
FF00
FC00
C000
C000
ENDCHAR
STARTCHAR 00DF
ENCODING 223
SWIDTH 609 0
DWIDTH 11 0
BBX 9 13 1 0
BITMAP
3C00
7E00
C300
C300
C300
CE00
CF00
C380
C180
C180
C180
DF00
DE00
ENDCHAR
STARTCHAR 00E0
ENCODING 224
SWIDTH 553 0
DWIDTH 10 0
BBX 8 14 1 0
BITMAP
10
10
18
00
3C
7F
C3
03
3F
E3
83
83
CD
79
ENDCHAR
STARTCHAR 00E1
ENCODING 225
SWIDTH 553 0
DWIDTH 10 0
BBX 8 14 1 0
BITMAP
04
08
08
00
3C
7F
C3
03
3F
E3
83
83
CD
79
ENDCHAR
STARTCHAR 00E2
ENCODING 226
SWIDTH 553 0
DWIDTH 10 0
BBX 8 14 1 0
BITMAP
18
34
66
00
3C
7F
C3
03
3F
E3
83
83
CD
79
ENDCHAR
STARTCHAR 00E3
ENCODING 227
SWIDTH 553 0
DWIDTH 10 0
BBX 8 13 1 0
BITMAP
3A
6E
00
3C
7F
C3
03
3F
E3
83
83
CD
79
ENDCHAR
STARTCHAR 00E4
ENCODING 228
SWIDTH 553 0
DWIDTH 10 0
BBX 8 13 1 0
BITMAP
26
26
00
3C
7F
C3
03
3F
E3
83
83
CD
79
ENDCHAR
STARTCHAR 00E5
ENCODING 229
SWIDTH 553 0
DWIDTH 10 0
BBX 8 15 1 0
BITMAP
1C
24
24
1C
00
3C
7F
C3
03
3F
E3
83
83
CD
79
ENDCHAR
STARTCHAR 00E6
ENCODING 230
SWIDTH 941 0
DWIDTH 17 0
BBX 15 10 1 0
BITMAP
3C78
7ECC
C386
0302
3FFE
E300
8300
8386
CEFC
7878
ENDCHAR
STARTCHAR 00E7
ENCODING 231
SWIDTH 553 0
DWIDTH 10 0
BBX 8 14 1 -4
BITMAP
3E
7F
C1
C0
80
80
C0
C1
77
3E
08
0C
0C
18
ENDCHAR
STARTCHAR 00E8
ENCODING 232
SWIDTH 609 0
DWIDTH 11 0
BBX 9 14 1 0
BITMAP
1000
1800
0800
0000
3E00
7700
C100
C180
FF80
8000
C000
C180
7F00
3E00
ENDCHAR
STARTCHAR 00E9
ENCODING 233
SWIDTH 609 0
DWIDTH 11 0
BBX 9 14 1 0
BITMAP
0400
0C00
0800
0000
3E00
7700
C100
C180
FF80
8000
C000
C180
7F00
3E00
ENDCHAR
STARTCHAR 00EA
ENCODING 234
SWIDTH 609 0
DWIDTH 11 0
BBX 9 14 1 0
BITMAP
1C00
3400
2200
0000
3E00
7700
C100
C180
FF80
8000
C000
C180
7F00
3E00
ENDCHAR
STARTCHAR 00EB
ENCODING 235
SWIDTH 609 0
DWIDTH 11 0
BBX 9 13 1 0
BITMAP
2600
2600
0000
3E00
7700
C100
C180
FF80
8000
C000
C180
7F00
3E00
ENDCHAR
STARTCHAR 00EC
ENCODING 236
SWIDTH 276 0
DWIDTH 5 0
BBX 2 14 1 0
BITMAP
80
80
40
00
C0
C0
C0
C0
C0
C0
C0
C0
C0
C0
ENDCHAR
STARTCHAR 00ED
ENCODING 237
SWIDTH 276 0
DWIDTH 5 0
BBX 3 14 1 0
BITMAP
60
40
40
00
C0
C0
C0
C0
C0
C0
C0
C0
C0
C0
ENDCHAR
STARTCHAR 00EE
ENCODING 238
SWIDTH 276 0
DWIDTH 5 0
BBX 6 14 -1 0
BITMAP
30
68
C4
00
30
30
30
30
30
30
30
30
30
30
ENDCHAR
STARTCHAR 00EF
ENCODING 239
SWIDTH 276 0
DWIDTH 5 0
BBX 5 13 0 0
BITMAP
98
98
00
60
60
60
60
60
60
60
60
60
60
ENDCHAR
STARTCHAR 00F0
ENCODING 240
SWIDTH 609 0
DWIDTH 11 0
BBX 9 15 1 0
BITMAP
0200
1E00
0E00
0F00
0B00
0100
7F80
E380
C180
8180
8180
8180
C100
7700
3E00
ENDCHAR
STARTCHAR 00F1
ENCODING 241
SWIDTH 609 0
DWIDTH 11 0
BBX 9 13 1 0
BITMAP
3A00
2E00
0000
DE00
FF00
C100
C180
C180
C180
C180
C180
C180
C180
ENDCHAR
STARTCHAR 00F2
ENCODING 242
SWIDTH 609 0
DWIDTH 11 0
BBX 9 14 1 0
BITMAP
1000
1000
0800
0000
3E00
7F00
C180
C180
8180
8180
C180
C180
7F00
3E00
ENDCHAR
STARTCHAR 00F3
ENCODING 243
SWIDTH 609 0
DWIDTH 11 0
BBX 9 14 1 0
BITMAP
0400
0C00
0800
0000
3E00
7F00
C180
C180
8180
8180
C180
C180
7F00
3E00
ENDCHAR
STARTCHAR 00F4
ENCODING 244
SWIDTH 609 0
DWIDTH 11 0
BBX 9 14 1 0
BITMAP
1C00
3400
2200
0000
3E00
7F00
C180
C180
8180
8180
C180
C180
7F00
3E00
ENDCHAR
STARTCHAR 00F5
ENCODING 245
SWIDTH 609 0
DWIDTH 11 0
BBX 9 13 1 0
BITMAP
3A00
2E00
0000
3E00
7F00
C180
C180
8180
8180
C180
C180
7F00
3E00
ENDCHAR
STARTCHAR 00F6
ENCODING 246
SWIDTH 609 0
DWIDTH 11 0
BBX 9 13 1 0
BITMAP
2600
2600
0000
3E00
7F00
C180
C180
8180
8180
C180
C180
7F00
3E00
ENDCHAR
STARTCHAR 00F7
ENCODING 247
SWIDTH 553 0
DWIDTH 10 0
BBX 8 7 1 3
BITMAP
18
18
00
FF
00
18
18
ENDCHAR
STARTCHAR 00F8
ENCODING 248
SWIDTH 609 0
DWIDTH 11 0
BBX 9 10 1 0
BITMAP
3E80
7F80
C380
C780
8D80
9980
F180
E180
FF00
BE00
ENDCHAR
STARTCHAR 00F9
ENCODING 249
SWIDTH 609 0
DWIDTH 11 0
BBX 9 14 1 0
BITMAP
1000
1800
0800
0000
C180
C180
C180
C180
C180
C180
C180
C380
7F80
3D80
ENDCHAR
STARTCHAR 00FA
ENCODING 250
SWIDTH 609 0
DWIDTH 11 0
BBX 9 14 1 0
BITMAP
0C00
0800
0800
0000
C180
C180
C180
C180
C180
C180
C180
C380
7F80
3D80
ENDCHAR
STARTCHAR 00FB
ENCODING 251
SWIDTH 609 0
DWIDTH 11 0
BBX 9 14 1 0
BITMAP
1800
3400
6200
0000
C180
C180
C180
C180
C180
C180
C180
C380
7F80
3D80
ENDCHAR
STARTCHAR 00FC
ENCODING 252
SWIDTH 609 0
DWIDTH 11 0
BBX 9 13 1 0
BITMAP
2600
2600
0000
C180
C180
C180
C180
C180
C180
C180
C380
7F80
3D80
ENDCHAR
STARTCHAR 00FD
ENCODING 253
SWIDTH 553 0
DWIDTH 10 0
BBX 9 18 0 -4
BITMAP
0400
0400
0C00
0000
C080
6180
6180
2100
3300
3200
1E00
1E00
0C00
0C00
0C00
0800
1800
1000
ENDCHAR
STARTCHAR 00FE
ENCODING 254
SWIDTH 609 0
DWIDTH 11 0
BBX 9 17 1 -4
BITMAP
C000
C000
C000
DE00
F700
C180
C180
C180
C180
C180
C180
F700
DE00
C000
C000
C000
C000
ENDCHAR
STARTCHAR 00FF
ENCODING 255
SWIDTH 553 0
DWIDTH 10 0
BBX 9 17 0 -4
BITMAP
3300
3300
0000
C080
6180
6180
2100
3300
3200
1E00
1E00
0C00
0C00
0C00
0800
1800
1000
ENDCHAR
ENDFONT
